<svg xmlns="http://www.w3.org/2000/svg" version="1.1" viewBox="0 0 2871.664 3225.782"><g transform="translate(112.891 112.891) scale(11.2891)"><defs><linearGradient id="a"><stop offset="0" stop-color="#8f5e25"/><stop offset=".5" stop-color="#fbf4a1"/><stop offset="1" stop-color="#8f5e25"/></linearGradient></defs><path xmlns="http://www.w3.org/2000/svg" d="M23.11 55.78 1.69 43.41A3.39 3.39 0 0 1 0 40.48V15.75a3.39 3.39 0 0 1 1.69-2.94L23.11.45a3.39 3.39 0 0 1 3.39 0l21.41 12.37a3.39 3.39 0 0 1 1.69 2.94v24.72a3.39 3.39 0 0 1-1.69 2.94L26.5 55.78a3.39 3.39 0 0 1-3.39 0z" fill="url(#a)" featureKey="rootContainer" transform="translate(0 .02) scale(4.7253)"/><path xmlns="http://www.w3.org/2000/svg" d="M88.706 149.592v-2.408h-2.77v-2.65H81v-3.13h4.936v-2.889H81v-3.13h4.936v-2.89H81v-3.13h4.936v-2.77H81v-3.13h4.936v-2.89H81v-3.13h4.936v-2.77H81v-3.13h4.936v-2.89H81v-3.13h4.936v-2.769H81v-3.13h4.936v-2.89H81v-3.13h4.936v-2.89H81v-3.13h4.936v-2.77h2.77v-4.815h3.01v4.815h3.01v-4.815h3.01v4.815h3.01v-4.815h3.01v4.815h2.89v-4.815h3.01v4.815h3.009v-4.815h3.01v4.815h2.89v-4.815h3.01v4.815h3.01v-4.815h3.01v4.815h2.89v-4.815h3.01v4.815h3.01v-4.815h3.01v4.815h3.01v-4.815h3.01v4.815h2.769v2.77h4.936v3.13h-4.936v2.89h4.936v3.13h-4.936v2.89h4.936v3.13h-4.936v2.77h4.936v3.13h-4.936v2.889h4.936v3.13h-4.936v2.77h4.936v3.13h-4.936v2.89h4.936v3.13h-4.936v2.77h4.936v3.13h-4.936v2.89h4.936v3.13h-4.936v2.89h4.936v3.13h-4.936v2.649h-2.77v4.815h-3.01v-4.815h-3.01v4.815h-3.01v-4.815h-3.01v4.815h-3.01v-4.815h-2.89v4.815h-3.01v-4.815h-3.009v4.815h-3.01v-4.815h-2.89v4.815h-3.01v-4.815h-3.01v4.815h-3.01v-4.815h-2.89v4.815h-3.01v-4.815h-3.01v4.815h-3.01v-4.815h-3.01v4.815h-3.01v-2.407zM147.58 116V85.539H86.66v60.922h60.922V116zm-60.32 28.085v-1.774l1.745 1.742c.961.959 1.746 1.757 1.746 1.775 0 .017-.785.031-1.746.031h-1.745v-1.774zm4.77.557c-.747-.176-1.84-.82-2.373-1.397-.27-.293-.663-.895-.873-1.338l-.38-.804V90.884l.449-.91c.542-1.096 1.239-1.778 2.359-2.309l.804-.38h50.206l.804.38c1.12.531 1.817 1.214 2.36 2.31l.448.91v50.218l-.38.804c-.53 1.12-1.214 1.817-2.31 2.36l-.91.448-9.728.034-9.728.034v-1.693H111.46v1.685l-9.481-.011c-5.235-.007-9.691-.062-9.949-.123zm18.708-1.431v-.843h12.762v1.692l9.007-.033 9.006-.034.91-.45c1.095-.541 1.778-1.238 2.308-2.358l.381-.804V91.607l-.45-.91c-.541-1.096-1.238-1.78-2.358-2.31l-.804-.38H92.739l-.804.38c-1.12.53-1.817 1.214-2.359 2.31l-.449.91v48.774l.38.804c.21.443.603 1.045.873 1.338.533.578 1.626 1.22 2.373 1.396.257.06 4.41.116 9.227.122l8.759.012v-.842zm8.428-9.398c-5.965-.742-10.842-3.983-13.332-8.858-1.172-2.295-1.644-4.245-1.644-6.788 0-2.54.473-4.492 1.64-6.779.858-1.68 2.287-3.555 3.38-4.433l.458-.369-.558.815c-2.594 3.79-3.268 8.642-1.806 13.014.805 2.402 1.916 4.18 3.795 6.066 2.38 2.391 5.3 3.95 8.827 4.712 1.027.222 1.607.265 3.574.265 1.968 0 2.546-.043 3.574-.265 2.275-.491 4.458-1.392 6.256-2.58.968-.64.976-.643.636-.22-.85 1.057-2.966 2.665-4.663 3.541-1.36.702-3.579 1.445-5.08 1.698-1.428.242-3.867.329-5.057.18zm5.962-9.214c2.594-3.79 3.268-8.642 1.806-13.014-.805-2.402-1.916-4.18-3.795-6.066-2.38-2.391-5.3-3.95-8.827-4.712-1.777-.384-5.372-.384-7.148 0-2.275.491-4.458 1.392-6.256 2.58-.968.64-.976.643-.636.22.85-1.057 2.966-2.665 4.663-3.541 1.364-.704 3.566-1.44 5.14-1.717 1.626-.286 4.516-.286 6.141 0 6.968 1.225 12.337 6.273 13.625 12.81.434 2.195.228 5.089-.518 7.335-.782 2.352-2.688 5.26-4.294 6.551l-.46.369.559-.815zM87.993 88.04c-.61-.318-.569-1.302.066-1.543.67-.255 1.353.333 1.18 1.018-.134.536-.736.79-1.246.524z" fill="#000" featureKey="symbolFeature-0"/><path d="M51.636 172h3.385v13.021h-3.385v-7.291l-2.292 4.426H47.65l-2.265-4.426v7.291H42v-13.02h3.386l3.125 5.91zm5.99 13.021v-2.604h1.041v-7.812h-1.042V172h5.469v2.605h-1.042v7.812h1.042v2.604h-5.469zm16.144-13.02h3.386v13.02h-2.995l-5.078-7.291v7.291h-3.385v-13.02h2.995l5.078 7.24V172zm15.886 0 1.953 1.953v9.114l-1.953 1.953h-9.505v-13.02h9.505zm-1.433 10.155v-7.291h-4.686v7.291h4.687zm15.886-10.155 1.953 1.953v9.114l-1.952 1.953h-7.552l-1.954-1.953v-9.114L96.558 172h7.551zm-1.432 10.155v-7.291H97.99v7.291h4.687zm17.448-7.291h-7.682v2.213h6.64v2.865h-6.64v5.078h-3.385v-11.068L111.01 172h9.114v2.865zm2.344 10.156v-13.02h9.505l1.953 1.953v5.469l-1.953 1.952h-6.12v3.646h-3.385zm3.385-6.51h4.688v-3.646h-4.688v3.646zm22.136-3.646h-7.682v2.213h6.64v2.865h-6.64v2.213h7.682v2.865h-9.115l-1.953-1.953V172h11.068v2.865zm14.713-.912v4.558l-1.953 1.953 1.953 2.995v1.562h-3.125l-2.708-4.427h-2.5v4.427h-3.385v-13.02h9.765zm-3.385 3.777v-2.865h-4.948v2.865h4.948zm18.099-3.777v4.558l-1.953 1.953 1.953 2.994v1.563h-3.125l-2.708-4.427h-2.5v4.427h-3.386v-13.02h9.766zm-3.385 3.777v-2.865h-4.948v2.865h4.948zM192 172v1.563l-4.427 7.162v4.296h-3.385v-4.323l-4.427-7.135V172h2.994l3.126 5.312 3.125-5.312H192z" fill="#000" featureKey="nameFeature-0"/></g></svg>